<svg width="20" height="20" viewBox="0 0 20 20" fill="none" xmlns="http://www.w3.org/2000/svg">
<path d="M10 5.92157C10.3595 5.92157 10.6667 5.79412 10.9216 5.53922C11.183 5.27778 11.3137 4.96732 11.3137 4.60784C11.3137 4.23529 11.183 3.92157 10.9216 3.66667C10.6667 3.41176 10.3595 3.28431 10 3.28431C9.63399 3.28431 9.32353 3.41176 9.06863 3.66667C8.81373 3.92157 8.68627 4.23529 8.68627 4.60784C8.68627 4.96732 8.81373 5.27778 9.06863 5.53922C9.32353 5.79412 9.63399 5.92157 10 5.92157Z" fill="white"/>
<path d="M10 6.57843C9.52288 6.57843 9 6.55882 8.43137 6.51961C7.86275 6.47386 7.32026 6.42157 6.80392 6.36275C6.28758 6.29739 5.86601 6.23856 5.53922 6.18627C5.5 6.17974 5.45752 6.1732 5.41176 6.16667C5.36601 6.15359 5.31699 6.14706 5.26471 6.14706C5.14052 6.14706 5.02288 6.19935 4.91176 6.30392C4.80719 6.40196 4.7549 6.54248 4.7549 6.72549C4.7549 7.03922 4.89542 7.22876 5.17647 7.29412C5.26144 7.32026 5.44444 7.35294 5.72549 7.39216C6.00654 7.43137 6.31699 7.47386 6.65686 7.51961C6.99673 7.56536 7.30392 7.60784 7.57843 7.64706C7.85294 7.67974 8.02614 7.70261 8.09804 7.71569C8.39869 7.77451 8.55556 7.9902 8.56863 8.36275C8.56863 8.53922 8.56536 8.81373 8.55882 9.18627C8.55882 9.55882 8.54902 9.94771 8.52941 10.3529C8.5098 10.7516 8.47712 11.0752 8.43137 11.3235C8.41177 11.4804 8.36275 11.732 8.28431 12.0784C8.21242 12.4183 8.12745 12.8007 8.02941 13.2255C7.93137 13.6438 7.83333 14.0523 7.73529 14.451C7.64379 14.8431 7.56536 15.1765 7.5 15.451C7.43464 15.719 7.39869 15.866 7.39216 15.8922C7.33987 16.0882 7.36275 16.2647 7.46078 16.4216C7.56536 16.5719 7.71895 16.6471 7.92157 16.6471C8.20915 16.6471 8.40196 16.4673 8.5 16.1078C8.54575 15.9248 8.61111 15.6536 8.69608 15.2941C8.78758 14.9281 8.88562 14.5392 8.9902 14.1275C9.10131 13.7092 9.20261 13.3268 9.29412 12.9804C9.39216 12.634 9.46732 12.3824 9.51961 12.2255C9.57843 12.0098 9.64052 11.8562 9.70588 11.7647C9.77778 11.6732 9.87582 11.6275 10 11.6275C10.1242 11.6275 10.219 11.6732 10.2843 11.7647C10.3497 11.8562 10.4216 12.0098 10.5 12.2255C10.5392 12.3824 10.6046 12.634 10.6961 12.9804C10.7876 13.3268 10.8856 13.7092 10.9902 14.1275C11.1013 14.5392 11.2026 14.9281 11.2941 15.2941C11.3856 15.6536 11.4542 15.9248 11.5 16.1078C11.5915 16.4673 11.7843 16.6471 12.0784 16.6471C12.2745 16.6471 12.4216 16.5719 12.5196 16.4216C12.6242 16.2647 12.6503 16.0882 12.598 15.8922C12.5915 15.866 12.5556 15.719 12.4902 15.451C12.4314 15.1765 12.3529 14.8431 12.2549 14.451C12.1634 14.0523 12.0686 13.6438 11.9706 13.2255L11.7059 12.0784C11.634 11.732 11.585 11.4804 11.5588 11.3235C11.5196 11.0752 11.4902 10.7516 11.4706 10.3529C11.4575 9.94771 11.4477 9.55882 11.4412 9.18627V8.36275C11.4412 7.99673 11.5948 7.78105 11.902 7.71569C11.9739 7.70261 12.1471 7.67974 12.4216 7.64706C12.6961 7.60784 13.0033 7.56863 13.3431 7.52941C13.683 7.48366 13.9935 7.44118 14.2745 7.40196C14.5556 7.35621 14.7353 7.32026 14.8137 7.29412C15.1013 7.22222 15.2451 7.03268 15.2451 6.72549C15.2451 6.54248 15.1863 6.40196 15.0686 6.30392C14.9575 6.19935 14.8431 6.14706 14.7255 6.14706C14.6797 6.14706 14.634 6.15359 14.5882 6.16667L14.451 6.18627C14.1242 6.23856 13.7026 6.29739 13.1863 6.36275C12.6765 6.42157 12.1373 6.47386 11.5686 6.51961C11 6.55882 10.4771 6.57843 10 6.57843Z" fill="white"/>
<path fill-rule="evenodd" clip-rule="evenodd" d="M10 20C8.63399 20 7.34641 19.7386 6.13726 19.2157C4.93464 18.6928 3.87255 17.9706 2.95098 17.049C2.02941 16.1275 1.30719 15.0654 0.784314 13.8627C0.261438 12.6536 0 11.366 0 10C0 8.63399 0.261438 7.34967 0.784314 6.14706C1.30719 4.93791 2.02614 3.87255 2.94118 2.95098C3.86275 2.02941 4.92484 1.30719 6.12745 0.784314C7.3366 0.261438 8.62418 0 9.9902 0C11.3562 0 12.6438 0.261438 13.8529 0.784314C15.0621 1.30719 16.1275 2.02941 17.049 2.95098C17.9706 3.87255 18.6928 4.93791 19.2157 6.14706C19.7386 7.34967 20 8.63399 20 10C20 11.366 19.7386 12.6536 19.2157 13.8627C18.6928 15.0654 17.9706 16.1275 17.049 17.049C16.1275 17.9706 15.0621 18.6928 13.8529 19.2157C12.6503 19.7386 11.366 20 10 20ZM8.43137 6.51961C9 6.55882 9.52288 6.57843 10 6.57843C10.4771 6.57843 11 6.55882 11.5686 6.51961C12.1373 6.47386 12.6765 6.42157 13.1863 6.36275C13.7026 6.29739 14.1242 6.23856 14.451 6.18627L14.5882 6.16667C14.634 6.15359 14.6797 6.14706 14.7255 6.14706C14.8431 6.14706 14.9575 6.19935 15.0686 6.30392C15.1863 6.40196 15.2451 6.54248 15.2451 6.72549C15.2451 7.03268 15.1013 7.22222 14.8137 7.29412C14.7353 7.32026 14.5556 7.35621 14.2745 7.40196C13.9935 7.44118 13.683 7.48366 13.3431 7.52941C13.0033 7.56863 12.6961 7.60784 12.4216 7.64706C12.1471 7.67974 11.9739 7.70261 11.902 7.71569C11.5948 7.78105 11.4412 7.99673 11.4412 8.36275V9.18627C11.4477 9.55882 11.4575 9.94771 11.4706 10.3529C11.4902 10.7516 11.5196 11.0752 11.5588 11.3235C11.585 11.4804 11.634 11.732 11.7059 12.0784L11.9706 13.2255C12.0686 13.6438 12.1634 14.0523 12.2549 14.451C12.3529 14.8431 12.4314 15.1765 12.4902 15.451C12.5556 15.719 12.5915 15.866 12.598 15.8922C12.6503 16.0882 12.6242 16.2647 12.5196 16.4216C12.4216 16.5719 12.2745 16.6471 12.0784 16.6471C11.7843 16.6471 11.5915 16.4673 11.5 16.1078C11.4542 15.9248 11.3856 15.6536 11.2941 15.2941C11.2026 14.9281 11.1013 14.5392 10.9902 14.1275C10.8856 13.7092 10.7876 13.3268 10.6961 12.9804C10.6046 12.634 10.5392 12.3824 10.5 12.2255C10.4216 12.0098 10.3497 11.8562 10.2843 11.7647C10.219 11.6732 10.1242 11.6275 10 11.6275C9.87582 11.6275 9.77778 11.6732 9.70588 11.7647C9.64052 11.8562 9.57843 12.0098 9.51961 12.2255C9.46732 12.3824 9.39216 12.634 9.29412 12.9804C9.20261 13.3268 9.10131 13.7092 8.9902 14.1275C8.88562 14.5392 8.78758 14.9281 8.69608 15.2941C8.61111 15.6536 8.54575 15.9248 8.5 16.1078C8.40196 16.4673 8.20915 16.6471 7.92157 16.6471C7.71895 16.6471 7.56536 16.5719 7.46078 16.4216C7.36275 16.2647 7.33987 16.0882 7.39216 15.8922C7.39869 15.866 7.43464 15.719 7.5 15.451C7.56536 15.1765 7.64379 14.8431 7.73529 14.451C7.83333 14.0523 7.93137 13.6438 8.02941 13.2255C8.12745 12.8007 8.21242 12.4183 8.28431 12.0784C8.36275 11.732 8.41177 11.4804 8.43137 11.3235C8.47712 11.0752 8.5098 10.7516 8.52941 10.3529C8.54902 9.94771 8.55882 9.55882 8.55882 9.18627C8.56536 8.81373 8.56863 8.53922 8.56863 8.36275C8.55556 7.9902 8.39869 7.77451 8.09804 7.71569C8.02614 7.70261 7.85294 7.67974 7.57843 7.64706C7.30392 7.60784 6.99673 7.56536 6.65686 7.51961C6.31699 7.47386 6.00654 7.43137 5.72549 7.39216C5.44444 7.35294 5.26144 7.32026 5.17647 7.29412C4.89542 7.22876 4.7549 7.03922 4.7549 6.72549C4.7549 6.54248 4.80719 6.40196 4.91176 6.30392C5.02288 6.19935 5.14052 6.14706 5.26471 6.14706C5.31699 6.14706 5.36601 6.15359 5.41176 6.16667C5.45752 6.1732 5.5 6.17974 5.53922 6.18627C5.86601 6.23856 6.28758 6.29739 6.80392 6.36275C7.32026 6.42157 7.86275 6.47386 8.43137 6.51961ZM10.9216 5.53922C10.6667 5.79412 10.3595 5.92157 10 5.92157C9.63399 5.92157 9.32353 5.79412 9.06863 5.53922C8.81373 5.27778 8.68627 4.96732 8.68627 4.60784C8.68627 4.23529 8.81373 3.92157 9.06863 3.66667C9.32353 3.41176 9.63399 3.28431 10 3.28431C10.3595 3.28431 10.6667 3.41176 10.9216 3.66667C11.183 3.92157 11.3137 4.23529 11.3137 4.60784C11.3137 4.96732 11.183 5.27778 10.9216 5.53922Z" fill="#007AFF"/>
</svg>
