<svg width="140" height="139" viewBox="0 0 140 139" fill="none" xmlns="http://www.w3.org/2000/svg">
<path d="M24.3086 138.996C16.5156 138.996 10.5228 136.923 6.33008 132.775C2.18294 128.674 0.109375 122.749 0.109375 115.002V37.209C0.109375 29.4616 2.18294 23.5371 6.33008 19.4355C10.5228 15.2884 16.5156 13.2148 24.3086 13.2148H98.1367L80.5 30.8516H26.2227C23.4883 30.8516 21.3919 31.5579 19.9336 32.9707C18.4753 34.3379 17.7461 36.4798 17.7461 39.3965V112.814C17.7461 115.731 18.4753 117.896 19.9336 119.309C21.3919 120.676 23.4883 121.359 26.2227 121.359H100.939C103.127 121.359 104.882 120.676 106.203 119.309C107.57 117.896 108.254 115.731 108.254 112.814V59.084L125.891 41.4473V115.002C125.891 122.749 123.863 128.674 119.807 132.775C115.796 136.923 110.145 138.996 102.854 138.996H24.3086ZM51.7891 90.9395C50.7409 91.304 49.7611 91.0762 48.8496 90.2559C47.9837 89.4355 47.7786 88.4557 48.2344 87.3164L54.4551 72.6191L114.27 12.8047L126.574 25.041L66.6914 84.9238L51.7891 90.9395ZM132.111 19.5723L119.738 7.26758L124.182 2.89258C125.731 1.3431 127.531 0.477214 129.582 0.294922C131.633 0.11263 133.319 0.659505 134.641 1.93555L136.828 4.12305C138.423 5.62695 139.175 7.4043 139.084 9.45508C139.038 11.5059 138.218 13.3516 136.623 14.9922L132.111 19.5723Z" fill="#E5E5EA"/>
</svg>
