<svg width="29" height="24" viewBox="0 0 29 24" fill="none" xmlns="http://www.w3.org/2000/svg">
<path d="M5.17685 24C2.39397 24 0.934784 22.6096 0.934784 19.9295V4.06045C0.934784 1.39043 2.39397 0 5.17685 0H23.8232C26.6165 0 28.0652 1.4005 28.0652 4.06045V19.9295C28.0652 22.5995 26.6165 24 23.8232 24H5.17685ZM5.156 21.7834H23.8336C25.0739 21.7834 25.7722 21.1587 25.7722 19.9093V8.03023C25.7722 6.78086 25.0739 6.1461 23.8336 6.1461H5.156C3.90527 6.1461 3.22779 6.78086 3.22779 8.03023V19.9093C3.22779 21.1587 3.90527 21.7834 5.156 21.7834ZM11.8787 10.6599C11.4305 10.6599 11.2846 10.539 11.2846 10.1058V9.34005C11.2846 8.9068 11.4305 8.78589 11.8787 8.78589H12.6708C13.1294 8.78589 13.2649 8.9068 13.2649 9.34005V10.1058C13.2649 10.539 13.1294 10.6599 12.6708 10.6599H11.8787ZM16.3396 10.6599C15.8914 10.6599 15.7455 10.539 15.7455 10.1058V9.34005C15.7455 8.9068 15.8914 8.78589 16.3396 8.78589H17.1317C17.5903 8.78589 17.7258 8.9068 17.7258 9.34005V10.1058C17.7258 10.539 17.5903 10.6599 17.1317 10.6599H16.3396ZM20.8006 10.6599C20.342 10.6599 20.2065 10.539 20.2065 10.1058V9.34005C20.2065 8.9068 20.342 8.78589 20.8006 8.78589H21.5927C22.0409 8.78589 22.1868 8.9068 22.1868 9.34005V10.1058C22.1868 10.539 22.0409 10.6599 21.5927 10.6599H20.8006ZM7.42816 14.9118C6.96956 14.9118 6.83406 14.7809 6.83406 14.3476V13.5819C6.83406 13.1486 6.96956 13.0277 7.42816 13.0277H8.20987C8.66847 13.0277 8.81439 13.1486 8.81439 13.5819V14.3476C8.81439 14.7809 8.66847 14.9118 8.20987 14.9118H7.42816ZM11.8787 14.9118C11.4305 14.9118 11.2846 14.7809 11.2846 14.3476V13.5819C11.2846 13.1486 11.4305 13.0277 11.8787 13.0277H12.6708C13.1294 13.0277 13.2649 13.1486 13.2649 13.5819V14.3476C13.2649 14.7809 13.1294 14.9118 12.6708 14.9118H11.8787ZM16.3396 14.9118C15.8914 14.9118 15.7455 14.7809 15.7455 14.3476V13.5819C15.7455 13.1486 15.8914 13.0277 16.3396 13.0277H17.1317C17.5903 13.0277 17.7258 13.1486 17.7258 13.5819V14.3476C17.7258 14.7809 17.5903 14.9118 17.1317 14.9118H16.3396ZM20.8006 14.9118C20.342 14.9118 20.2065 14.7809 20.2065 14.3476V13.5819C20.2065 13.1486 20.342 13.0277 20.8006 13.0277H21.5927C22.0409 13.0277 22.1868 13.1486 22.1868 13.5819V14.3476C22.1868 14.7809 22.0409 14.9118 21.5927 14.9118H20.8006ZM7.42816 19.1537C6.96956 19.1537 6.83406 19.0227 6.83406 18.5894V17.8338C6.83406 17.3904 6.96956 17.2695 7.42816 17.2695H8.20987C8.66847 17.2695 8.81439 17.3904 8.81439 17.8338V18.5894C8.81439 19.0227 8.66847 19.1537 8.20987 19.1537H7.42816ZM11.8787 19.1537C11.4305 19.1537 11.2846 19.0227 11.2846 18.5894V17.8338C11.2846 17.3904 11.4305 17.2695 11.8787 17.2695H12.6708C13.1294 17.2695 13.2649 17.3904 13.2649 17.8338V18.5894C13.2649 19.0227 13.1294 19.1537 12.6708 19.1537H11.8787ZM16.3396 19.1537C15.8914 19.1537 15.7455 19.0227 15.7455 18.5894V17.8338C15.7455 17.3904 15.8914 17.2695 16.3396 17.2695H17.1317C17.5903 17.2695 17.7258 17.3904 17.7258 17.8338V18.5894C17.7258 19.0227 17.5903 19.1537 17.1317 19.1537H16.3396Z" fill="#007AFF"/>
</svg>
