<svg width="20" height="20" viewBox="0 0 20 20" fill="none" xmlns="http://www.w3.org/2000/svg">
<path d="M10 20C8.63399 20 7.34641 19.7386 6.13726 19.2157C4.93464 18.6928 3.87255 17.9706 2.95098 17.049C2.02941 16.1275 1.30719 15.0654 0.784314 13.8627C0.261438 12.6536 0 11.366 0 10C0 8.63399 0.261438 7.34967 0.784314 6.14706C1.30719 4.93791 2.02614 3.87255 2.94118 2.95098C3.86275 2.02941 4.92484 1.30719 6.12745 0.784314C7.3366 0.261438 8.62418 0 9.9902 0C11.3562 0 12.6438 0.261438 13.8529 0.784314C15.0621 1.30719 16.1275 2.02941 17.049 2.95098C17.9706 3.87255 18.6928 4.93791 19.2157 6.14706C19.7386 7.34967 20 8.63399 20 10C20 11.366 19.7386 12.6536 19.2157 13.8627C18.6928 15.0654 17.9706 16.1275 17.049 17.049C16.1275 17.9706 15.0621 18.6928 13.8529 19.2157C12.6503 19.7386 11.366 20 10 20ZM8.90196 14.7843C9.0719 14.7843 9.22549 14.7451 9.36275 14.6667C9.5 14.5882 9.62092 14.4706 9.72549 14.3137L14.3333 7.04902C14.3922 6.95098 14.4477 6.84641 14.5 6.73529C14.5523 6.62418 14.5784 6.51307 14.5784 6.40196C14.5784 6.1732 14.4935 5.99346 14.3235 5.86275C14.1536 5.72549 13.9641 5.65686 13.7549 5.65686C13.4673 5.65686 13.232 5.80719 13.049 6.10784L8.86275 12.8333L6.87255 10.2647C6.74837 10.1013 6.62745 9.9902 6.5098 9.93137C6.39869 9.87255 6.27124 9.84314 6.12745 9.84314C5.90523 9.84314 5.71895 9.92484 5.56863 10.0882C5.4183 10.2451 5.34314 10.4346 5.34314 10.6569C5.34314 10.768 5.36275 10.8791 5.40196 10.9902C5.44771 11.0948 5.50654 11.1961 5.57843 11.2941L8.03922 14.3137C8.16993 14.4837 8.30392 14.6046 8.44118 14.6765C8.57843 14.7484 8.73203 14.7843 8.90196 14.7843Z" fill="#28CD41"/>
</svg>
