<svg width="24" height="24" viewBox="0 0 24 24" fill="none" xmlns="http://www.w3.org/2000/svg">
<path fill-rule="evenodd" clip-rule="evenodd" d="M5.84478 10.6798C5.14897 10.6798 4.50966 10.5073 3.92685 10.1624C3.34404 9.81148 2.87719 9.34761 2.52632 8.77074C2.17544 8.18793 2 7.54564 2 6.84389C2 6.14214 2.17247 5.49985 2.5174 4.91704C2.86827 4.33423 3.33512 3.86738 3.91793 3.5165C4.50074 3.16563 5.14303 2.99019 5.84478 2.99019C6.54654 2.99019 7.18585 3.16563 7.76271 3.5165C8.34552 3.86738 8.81237 4.33423 9.16325 4.91704C9.51412 5.49985 9.68956 6.14214 9.68956 6.84389C9.68956 7.54564 9.51412 8.18793 9.16325 8.77074C8.81237 9.34761 8.34552 9.81148 7.76271 10.1624C7.18585 10.5073 6.54654 10.6798 5.84478 10.6798ZM5.84478 8.65477C5.73773 8.82129 5.58608 8.90455 5.38983 8.90455C5.29468 8.90455 5.21142 8.88374 5.14005 8.84211C5.07464 8.79453 5.00922 8.73209 4.9438 8.65477L3.94469 7.45049C3.86738 7.35534 3.82872 7.23937 3.82872 7.10259C3.82872 6.97175 3.87035 6.86173 3.95361 6.77253C4.04282 6.68332 4.14689 6.63872 4.26583 6.63872C4.35504 6.63872 4.42938 6.65656 4.48885 6.69224C4.55427 6.72792 4.61671 6.78442 4.67618 6.86173L5.37199 7.74487L6.95986 5.19358C7.0669 5.02706 7.20071 4.9438 7.36128 4.9438C7.48617 4.9438 7.59322 4.98543 7.68243 5.06869C7.77758 5.15195 7.82516 5.25008 7.82516 5.36307C7.82516 5.48201 7.7865 5.60393 7.70919 5.72881L5.84478 8.65477Z" fill="#28CD41"/>
<path d="M12.3568 7.52186C12.1665 7.52186 12.0059 7.45644 11.8751 7.3256C11.7443 7.19477 11.6789 7.0342 11.6789 6.84389C11.6789 6.65953 11.7443 6.50193 11.8751 6.3711C12.0059 6.24026 12.1665 6.17484 12.3568 6.17484H21.3131C21.5034 6.17484 21.664 6.24026 21.7948 6.3711C21.9316 6.50193 22 6.65953 22 6.84389C22 7.0342 21.9316 7.19477 21.7948 7.3256C21.664 7.45644 21.5034 7.52186 21.3131 7.52186H12.3568Z" fill="#AEAEB2"/>
<path fill-rule="evenodd" clip-rule="evenodd" d="M5.84478 21.0098C5.14897 21.0098 4.50966 20.8344 3.92685 20.4835C3.34404 20.1326 2.87719 19.6658 2.52632 19.083C2.17544 18.5001 2 17.8608 2 17.165C2 16.4633 2.17247 15.821 2.5174 15.2382C2.86827 14.6554 3.33512 14.1885 3.91793 13.8376C4.50074 13.4868 5.14303 13.3113 5.84478 13.3113C6.54654 13.3113 7.18585 13.4868 7.76271 13.8376C8.34552 14.1826 8.81237 14.6464 9.16325 15.2293C9.51412 15.8121 9.68956 16.4573 9.68956 17.165C9.68956 17.8608 9.51412 18.5001 9.16325 19.083C8.81237 19.6658 8.34552 20.1326 7.76271 20.4835C7.18585 20.8344 6.54654 21.0098 5.84478 21.0098ZM7.11151 19.3595C6.72495 19.5914 6.30271 19.7074 5.84478 19.7074C5.38686 19.7074 4.96462 19.5914 4.57806 19.3595C4.1915 19.1276 3.88225 18.8183 3.65031 18.4318C3.41838 18.0452 3.30241 17.623 3.30241 17.165C3.30241 16.7012 3.41838 16.2759 3.65031 15.8894C3.88225 15.5028 4.1915 15.1936 4.57806 14.9616C4.96462 14.7297 5.38686 14.6137 5.84478 14.6137C6.30271 14.6137 6.72495 14.7297 7.11151 14.9616C7.49807 15.1936 7.80731 15.5028 8.03925 15.8894C8.27119 16.2759 8.38715 16.7012 8.38715 17.165C8.38715 17.623 8.27119 18.0452 8.03925 18.4318C7.80731 18.8183 7.49807 19.1276 7.11151 19.3595Z" fill="#636366"/>
<path d="M12.3568 17.8341C12.1665 17.8341 12.0059 17.7687 11.8751 17.6378C11.7443 17.507 11.6789 17.3494 11.6789 17.165C11.6789 16.9747 11.7443 16.8142 11.8751 16.6833C12.0059 16.5525 12.1665 16.4871 12.3568 16.4871H21.3131C21.5034 16.4871 21.664 16.5525 21.7948 16.6833C21.9316 16.8142 22 16.9747 22 17.165C22 17.3494 21.9316 17.507 21.7948 17.6378C21.664 17.7687 21.5034 17.8341 21.3131 17.8341H12.3568Z" fill="#636366"/>
</svg>
