<svg width="29" height="24" viewBox="0 0 29 24" fill="none" xmlns="http://www.w3.org/2000/svg">
<path d="M1.94482 12.1318C1.3208 12.1318 0.934082 11.7012 0.934082 11.1914C0.934082 10.9102 1.05713 10.6201 1.32959 10.4004L13.0278 0.583008C13.4849 0.1875 13.9946 0.00292969 14.4956 0.00292969C15.0054 0.00292969 15.5063 0.1875 15.9634 0.583008L21.8257 5.49609V3.34277C21.8257 2.87695 22.1333 2.57812 22.5991 2.57812H23.9878C24.4448 2.57812 24.7437 2.87695 24.7437 3.34277V7.94824L27.6704 10.4004C27.9341 10.6201 28.0659 10.9102 28.0659 11.1914C28.0659 11.7012 27.6792 12.1318 27.0552 12.1318C26.7476 12.1318 26.4751 11.9736 26.2378 11.7715L14.9878 2.33203C14.8296 2.2002 14.6626 2.12988 14.4956 2.12988C14.3374 2.12988 14.1704 2.2002 14.0122 2.33203L2.75342 11.7715C2.51611 11.9736 2.25244 12.1318 1.94482 12.1318ZM4.44092 21.5098V12.4043L13.7925 4.56445C14.2319 4.18652 14.7417 4.17773 15.1987 4.56445L24.5591 12.4131V21.5098C24.5591 23.0566 23.5923 23.9971 21.9927 23.9971H6.99854C5.39893 23.9971 4.44092 23.0566 4.44092 21.5098ZM11.4106 22.0986H17.5806V15.4365C17.5806 14.9268 17.2554 14.6016 16.7544 14.6016H12.2544C11.7446 14.6016 11.4106 14.9268 11.4106 15.4365V22.0986Z" fill="#007AFF"/>
</svg>
