<svg width="20" height="20" viewBox="0 0 20 20" fill="none" xmlns="http://www.w3.org/2000/svg">
<path d="M8.04817 8.96136C7.87423 8.96136 7.75046 8.92791 7.67687 8.86101C7.60997 8.79411 7.57652 8.67369 7.57652 8.49974V7.90767C7.57652 7.73373 7.60997 7.61665 7.67687 7.55644C7.75046 7.48954 7.87423 7.45609 8.04817 7.45609H8.64024C8.81418 7.45609 8.9346 7.48954 9.00151 7.55644C9.0751 7.61665 9.11189 7.73373 9.11189 7.90767V8.49974C9.11189 8.67369 9.0751 8.79411 9.00151 8.86101C8.9346 8.92791 8.81418 8.96136 8.64024 8.96136H8.04817Z" fill="#636366"/>
<path fill-rule="evenodd" clip-rule="evenodd" d="M3.15103 19.2373C2.10069 19.2373 1.31126 18.9764 0.78274 18.4546C0.260913 17.9394 0 17.1634 0 16.1264V3.87355C0 2.83659 0.260913 2.06054 0.78274 1.5454C1.31126 1.02358 2.10069 0.762665 3.15103 0.762665H16.859C17.9093 0.762665 18.6954 1.02358 19.2173 1.5454C19.7391 2.06054 20 2.83659 20 3.87355V16.1264C20 17.1634 19.7391 17.9394 19.2173 18.4546C18.6954 18.9764 17.9093 19.2373 16.859 19.2373H3.15103ZM16.9895 17.6217H3.0005C2.55896 17.6217 2.21776 17.5012 1.97692 17.2604C1.73608 17.0263 1.61565 16.6784 1.61565 16.2168V6.75363C1.61565 6.29202 1.73608 5.94413 1.97692 5.70998C2.21776 5.46914 2.55896 5.34872 3.0005 5.34872H16.9895C17.4377 5.34872 17.7822 5.46914 18.0231 5.70998C18.2639 5.94413 18.3843 6.29202 18.3843 6.75363V16.2168C18.3843 16.6784 18.2639 17.0263 18.0231 17.2604C17.7822 17.5012 17.4377 17.6217 16.9895 17.6217Z" fill="#007AFF"/>
<path fill-rule="evenodd" clip-rule="evenodd" d="M11.0186 8.86101C11.0855 8.92791 11.2059 8.96136 11.3798 8.96136H11.9719C12.1525 8.96136 12.2763 8.92791 12.3432 8.86101C12.4101 8.79411 12.4436 8.67369 12.4436 8.49974V7.90767C12.4436 7.73373 12.4101 7.61665 12.3432 7.55644C12.2763 7.48954 12.1525 7.45609 11.9719 7.45609H11.3798C11.2059 7.45609 11.0855 7.48954 11.0186 7.55644C10.9517 7.61665 10.9182 7.73373 10.9182 7.90767V8.49974C10.9182 8.67369 10.9517 8.79411 11.0186 8.86101ZM14.3502 8.86101C14.4171 8.92791 14.5409 8.96136 14.7215 8.96136H15.3036C15.4842 8.96136 15.608 8.92791 15.6749 8.86101C15.7418 8.79411 15.7752 8.67369 15.7752 8.49974V7.90767C15.7752 7.73373 15.7418 7.61665 15.6749 7.55644C15.608 7.48954 15.4842 7.45609 15.3036 7.45609H14.7215C14.5409 7.45609 14.4171 7.48954 14.3502 7.55644C14.2833 7.61665 14.2499 7.73373 14.2499 7.90767V8.49974C14.2499 8.67369 14.2833 8.79411 14.3502 8.86101ZM4.34521 12.1425C4.41211 12.2094 4.53588 12.2428 4.71651 12.2428H5.30858C5.48252 12.2428 5.60294 12.2094 5.66984 12.1425C5.73675 12.0756 5.7702 11.9552 5.7702 11.7812V11.1992C5.7702 11.0186 5.73675 10.8981 5.66984 10.8379C5.60294 10.771 5.48252 10.7376 5.30858 10.7376H4.71651C4.53588 10.7376 4.41211 10.771 4.34521 10.8379C4.27831 10.8981 4.24486 11.0186 4.24486 11.1992V11.7812C4.24486 11.9552 4.27831 12.0756 4.34521 12.1425ZM7.67687 12.1425C7.75046 12.2094 7.87423 12.2428 8.04817 12.2428H8.64024C8.81418 12.2428 8.9346 12.2094 9.00151 12.1425C9.0751 12.0756 9.11189 11.9552 9.11189 11.7812V11.1992C9.11189 11.0186 9.0751 10.8981 9.00151 10.8379C8.9346 10.771 8.81418 10.7376 8.64024 10.7376H8.04817C7.87423 10.7376 7.75046 10.771 7.67687 10.8379C7.60997 10.8981 7.57652 11.0186 7.57652 11.1992V11.7812C7.57652 11.9552 7.60997 12.0756 7.67687 12.1425ZM14.3502 12.1425C14.4171 12.2094 14.5409 12.2428 14.7215 12.2428H15.3036C15.4842 12.2428 15.608 12.2094 15.6749 12.1425C15.7418 12.0756 15.7752 11.9552 15.7752 11.7812V11.1992C15.7752 11.0186 15.7418 10.8981 15.6749 10.8379C15.608 10.771 15.4842 10.7376 15.3036 10.7376H14.7215C14.5409 10.7376 14.4171 10.771 14.3502 10.8379C14.2833 10.8981 14.2499 11.0186 14.2499 11.1992V11.7812C14.2499 11.9552 14.2833 12.0756 14.3502 12.1425ZM4.34521 15.434C4.41211 15.4942 4.53588 15.5243 4.71651 15.5243H5.30858C5.48252 15.5243 5.60294 15.4942 5.66984 15.434C5.73675 15.3671 5.7702 15.2433 5.7702 15.0627V14.4807C5.7702 14.3 5.73675 14.1796 5.66984 14.1194C5.60294 14.0525 5.48252 14.0191 5.30858 14.0191H4.71651C4.53588 14.0191 4.41211 14.0525 4.34521 14.1194C4.27831 14.1796 4.24486 14.3 4.24486 14.4807V15.0627C4.24486 15.2433 4.27831 15.3671 4.34521 15.434ZM7.67687 15.434C7.75046 15.4942 7.87423 15.5243 8.04817 15.5243H8.64024C8.81418 15.5243 8.9346 15.4942 9.00151 15.434C9.0751 15.3671 9.11189 15.2433 9.11189 15.0627V14.4807C9.11189 14.3 9.0751 14.1796 9.00151 14.1194C8.9346 14.0525 8.81418 14.0191 8.64024 14.0191H8.04817C7.87423 14.0191 7.75046 14.0525 7.67687 14.1194C7.60997 14.1796 7.57652 14.3 7.57652 14.4807V15.0627C7.57652 15.2433 7.60997 15.3671 7.67687 15.434ZM11.0186 15.434C11.0855 15.4942 11.2059 15.5243 11.3798 15.5243H11.9719C12.1525 15.5243 12.2763 15.4942 12.3432 15.434C12.4101 15.3671 12.4436 15.2433 12.4436 15.0627V14.4807C12.4436 14.3 12.4101 14.1796 12.3432 14.1194C12.2763 14.0525 12.1525 14.0191 11.9719 14.0191H11.3798C11.2059 14.0191 11.0855 14.0525 11.0186 14.1194C10.9517 14.1796 10.9182 14.3 10.9182 14.4807V15.0627C10.9182 15.2433 10.9517 15.3671 11.0186 15.434Z" fill="#636366"/>
<path d="M11.3798 12.2428C11.2059 12.2428 11.0855 12.2094 11.0186 12.1425C10.9517 12.0756 10.9182 11.9552 10.9182 11.7812V11.1992C10.9182 11.0186 10.9517 10.8981 11.0186 10.8379C11.0855 10.771 11.2059 10.7376 11.3798 10.7376H11.9719C12.1525 10.7376 12.2763 10.771 12.3432 10.8379C12.4101 10.8981 12.4436 11.0186 12.4436 11.1992V11.7812C12.4436 11.9552 12.4101 12.0756 12.3432 12.1425C12.2763 12.2094 12.1525 12.2428 11.9719 12.2428H11.3798Z" fill="#FF375F"/>
</svg>
