<svg width="23" height="24" viewBox="0 0 23 24" fill="none" xmlns="http://www.w3.org/2000/svg">
<path d="M3.29541 14.0522C2.15283 14.0522 1.23877 13.1382 1.23877 12.0044C1.23877 10.8618 2.15283 9.94775 3.29541 9.94775C4.4292 9.94775 5.35205 10.8618 5.35205 12.0044C5.35205 13.1382 4.4292 14.0522 3.29541 14.0522ZM11.4956 14.0522C10.3618 14.0522 9.44775 13.1382 9.44775 12.0044C9.44775 10.8618 10.3618 9.94775 11.4956 9.94775C12.6382 9.94775 13.5522 10.8618 13.5522 12.0044C13.5522 13.1382 12.6382 14.0522 11.4956 14.0522ZM19.7046 14.0522C18.5708 14.0522 17.6479 13.1382 17.6479 12.0044C17.6479 10.8618 18.5708 9.94775 19.7046 9.94775C20.8384 9.94775 21.7612 10.8618 21.7612 12.0044C21.7612 13.1382 20.8384 14.0522 19.7046 14.0522Z" fill="#8E8E93"/>
</svg>
