<svg width="15" height="14" viewBox="0 0 15 14" fill="none" xmlns="http://www.w3.org/2000/svg">
<path d="M1.35449 4.7334C1.00586 4.7334 0.807617 4.52832 0.807617 4.17285V2.49805C0.807617 1.08984 1.52539 0.385742 2.9541 0.385742H4.62207C4.98438 0.385742 5.18262 0.577148 5.18262 0.932617C5.18262 1.28809 4.98438 1.48633 4.62207 1.48633H2.96777C2.28418 1.48633 1.9082 1.84863 1.9082 2.55957V4.17285C1.9082 4.52832 1.7168 4.7334 1.35449 4.7334ZM13.6387 4.7334C13.29 4.7334 13.0918 4.52832 13.0918 4.17285V2.55957C13.0918 1.84863 12.7021 1.48633 12.0254 1.48633H10.3711C10.0156 1.48633 9.81738 1.28809 9.81738 0.932617C9.81738 0.577148 10.0156 0.385742 10.3711 0.385742H12.0459C13.4746 0.385742 14.1924 1.08984 14.1924 2.49805V4.17285C14.1924 4.52832 14.001 4.7334 13.6387 4.7334ZM4.45117 10.1611C3.72656 10.1611 3.36426 9.80566 3.36426 9.09473V5.48535C3.36426 4.76074 3.72656 4.40527 4.45117 4.40527H5.3125C5.5791 4.40527 5.66113 4.35059 5.81836 4.17969L6.09863 3.87207C6.26953 3.68066 6.44727 3.58496 6.80273 3.58496H8.18359C8.53223 3.58496 8.70996 3.68066 8.88086 3.87207L9.16113 4.17969C9.31836 4.35742 9.40039 4.40527 9.66699 4.40527H10.5557C11.2734 4.40527 11.6426 4.76074 11.6426 5.48535V9.09473C11.6426 9.80566 11.2734 10.1611 10.5557 10.1611H4.45117ZM7.51367 9.30664C8.6416 9.30664 9.55078 8.41797 9.55078 7.24902C9.55078 6.11426 8.6416 5.20508 7.51367 5.20508C6.37207 5.20508 5.45605 6.11426 5.45605 7.24902C5.45605 8.39746 6.37207 9.30664 7.51367 9.30664ZM10.2344 6.27148C10.4873 6.27148 10.6992 6.06641 10.6992 5.80664C10.6992 5.54688 10.4873 5.3418 10.2344 5.3418C9.98145 5.3418 9.77637 5.54688 9.77637 5.80664C9.77637 6.06641 9.98145 6.27148 10.2344 6.27148ZM7.50684 8.71191C6.7002 8.71191 6.04395 8.06934 6.04395 7.24902C6.04395 6.44238 6.7002 5.79297 7.50684 5.79297C8.30664 5.79297 8.96289 6.44238 8.96289 7.24902C8.96289 8.06934 8.30664 8.71191 7.50684 8.71191ZM2.9541 13.7637C1.52539 13.7637 0.807617 13.0596 0.807617 11.6445V9.97656C0.807617 9.61426 0.999023 9.41602 1.35449 9.41602C1.70996 9.41602 1.9082 9.61426 1.9082 9.97656V11.5898C1.9082 12.3008 2.28418 12.6631 2.96777 12.6631H4.62207C4.98438 12.6631 5.18262 12.8613 5.18262 13.2168C5.18262 13.5654 4.98438 13.7637 4.62207 13.7637H2.9541ZM10.3711 13.7637C10.0156 13.7637 9.81738 13.5654 9.81738 13.2168C9.81738 12.8613 10.0156 12.6631 10.3711 12.6631H12.0254C12.7021 12.6631 13.0918 12.3008 13.0918 11.5898V9.97656C13.0918 9.61426 13.2832 9.41602 13.6387 9.41602C13.9941 9.41602 14.1924 9.61426 14.1924 9.97656V11.6445C14.1924 13.0527 13.4746 13.7637 12.0459 13.7637H10.3711Z" fill="#55BEF0"/>
</svg>
