<svg width="13" height="14" viewBox="0 0 13 14" fill="none" xmlns="http://www.w3.org/2000/svg">
<path opacity="0.6" d="M0.789062 13.8936C0.399414 13.8936 0.078125 13.5723 0.078125 13.1758V1.8418C0.078125 1.21973 0.37207 0.864258 0.864258 0.638672C1.43848 0.378906 1.94434 0.242188 2.96289 0.242188C5.42383 0.242188 7.19434 1.49316 9.55273 1.49316C10.5986 1.49316 11.207 1.24707 11.624 1.24707C12.1367 1.24707 12.499 1.56836 12.499 2.06738V8.80078C12.499 9.44336 12.2256 9.86035 11.7266 10.0928C11.1865 10.3389 10.6533 10.4824 9.61426 10.4824C7.20117 10.4824 5.48535 9.23828 3.02441 9.23828C2.23828 9.23828 1.69824 9.41602 1.5 9.48438V13.1758C1.5 13.5791 1.17871 13.8936 0.789062 13.8936Z" fill="#FF3B30"/>
</svg>
