<svg width="20" height="20" viewBox="0 0 20 20" fill="none" xmlns="http://www.w3.org/2000/svg">
<path d="M10 19.2447C9.89929 19.2447 9.77845 19.2145 9.63746 19.1541C9.50319 19.1004 9.38234 19.0399 9.27492 18.9728C7.38167 17.7644 5.74018 16.4988 4.35045 15.1762C2.96073 13.8469 1.88654 12.4841 1.1279 11.0876C0.375965 9.68446 0 8.26788 0 6.83787C0 5.94495 0.140987 5.12924 0.422961 4.39074C0.711648 3.64552 1.11111 3.00101 1.62135 2.4572C2.13159 1.91339 2.72575 1.49379 3.40383 1.19839C4.08191 0.902988 4.81705 0.755287 5.60926 0.755287C6.59617 0.755287 7.46224 1.00705 8.20745 1.51057C8.95267 2.0141 9.55018 2.67875 10 3.50453C10.4565 2.67204 11.0574 2.00739 11.8026 1.51057C12.5478 1.00705 13.4105 0.755287 14.3907 0.755287C15.1829 0.755287 15.9181 0.902988 16.5962 1.19839C17.281 1.49379 17.8751 1.91339 18.3787 2.4572C18.8889 3.00101 19.285 3.64552 19.567 4.39074C19.8557 5.12924 20 5.94495 20 6.83787C20 8.26788 19.6207 9.68446 18.862 11.0876C18.1101 12.4841 17.0393 13.8469 15.6495 15.1762C14.2665 16.4988 12.6284 17.7644 10.7351 18.9728C10.6277 19.0399 10.5035 19.1004 10.3625 19.1541C10.2283 19.2145 10.1074 19.2447 10 19.2447Z" fill="#FF375F"/>
</svg>
