<svg width="25" height="24" viewBox="0 0 25 24" fill="none" xmlns="http://www.w3.org/2000/svg">
<path d="M12.5 0C12.8768 0 13.1974 0.312625 13.1974 0.681363V10.6293L13.1493 12.1523L13.7826 11.495L15.522 9.66733C15.6503 9.52305 15.8347 9.4509 16.003 9.4509C16.3637 9.4509 16.6443 9.71543 16.6443 10.0762C16.6443 10.2605 16.5721 10.4048 16.4359 10.5411L13.005 13.8758C12.8367 14.0521 12.6764 14.1082 12.5 14.1082C12.3156 14.1082 12.1633 14.0521 11.987 13.8758L8.55611 10.5411C8.41984 10.4048 8.3477 10.2605 8.3477 10.0762C8.3477 9.71543 8.61223 9.4509 8.98096 9.4509C9.1493 9.4509 9.34169 9.52305 9.46994 9.66733L11.2094 11.495L11.8507 12.1523L11.7946 10.6293V0.681363C11.7946 0.312625 12.1152 0 12.5 0ZM15.009 6.62124H16.9729C18.6964 6.62124 19.2255 7.03808 20.3397 8.41683L24.1072 13.1303C24.5241 13.6513 24.6443 14.0601 24.6443 14.9098V20.9058C24.6443 22.9499 23.5942 24 21.518 24H3.47395C1.40581 24 0.355713 22.9579 0.355713 20.9058V14.9098C0.355713 14.0601 0.475953 13.6513 0.884771 13.1303L4.66032 8.41683C5.77455 7.03808 6.30361 6.62124 8.02706 6.62124H9.99098V7.87174H7.90682C7.12124 7.87174 6.55211 8.12826 6.0471 8.76954L2.03106 13.8597C1.87876 14.0521 1.94289 14.3086 2.23948 14.3086H9.27756C9.7505 14.3086 9.98297 14.6613 9.98297 15.0541V15.1022C9.98297 16.4168 10.993 17.6834 12.5 17.6834C13.999 17.6834 15.017 16.4168 15.017 15.1022V15.0541C15.017 14.6613 15.2415 14.3086 15.7224 14.3086H22.7605C23.0571 14.3086 23.1212 14.0521 22.9689 13.8597L18.9529 8.76954C18.4479 8.12826 17.8788 7.87174 17.0932 7.87174H15.009V6.62124ZM3.50601 22.5731H21.494C22.5922 22.5731 23.2174 21.98 23.2174 20.8337V15.6072H16.3637C16.1633 17.5631 14.5601 18.998 12.5 18.998C10.4399 18.998 8.82866 17.5711 8.62826 15.6072H1.77455V20.8337C1.77455 21.98 2.38377 22.5731 3.50601 22.5731Z" fill="#8E8E93"/>
</svg>
